<svg xmlns="http://www.w3.org/2000/svg" viewBox="0 0 800 1000" role="img" aria-label="Fictional abstract artwork Archive of Rain">
  <rect width="800" height="1000" fill="#f7f2ec"/>
  <rect x="88" y="76" width="624" height="848" fill="#efe3d0"/>
  <g opacity=".95">
    <path d="M180 90 L210 910" stroke="#2457a6" stroke-width="9"/>
    <path d="M285 92 L260 910" stroke="#28715a" stroke-width="11"/>
    <path d="M390 86 L420 915" stroke="#8a6500" stroke-width="8"/>
    <path d="M515 88 L485 914" stroke="#9a2d2d" stroke-width="10"/>
    <path d="M625 92 L650 910" stroke="#172033" stroke-width="8"/>
  </g>
  <g fill="none" stroke="#172033" stroke-width="5" opacity=".18">
    <path d="M88 230 H712"/>
    <path d="M88 385 H712"/>
    <path d="M88 542 H712"/>
    <path d="M88 705 H712"/>
  </g>
  <path d="M132 300 C250 220 325 270 405 360 C505 470 583 445 666 380" fill="none" stroke="#2457a6" stroke-width="28" opacity=".28"/>
  <path d="M128 598 C230 505 350 555 445 640 C540 724 615 710 690 630" fill="none" stroke="#28715a" stroke-width="32" opacity=".25"/>
  <circle cx="410" cy="500" r="92" fill="#fffaf2" opacity=".52"/>
</svg>
